<?xml version="1.0" encoding="utf-8"?>
<!-- Generator: Adobe Illustrator 22.1.0, SVG Export Plug-In . SVG Version: 6.00 Build 0)  -->
<svg version="1.1" id="Layer_1" xmlns="http://www.w3.org/2000/svg" xmlns:xlink="http://www.w3.org/1999/xlink" x="0px" y="0px"
	 viewBox="0 0 87.2 51.9" style="enable-background:new 0 0 87.2 51.9;" xml:space="preserve">
<style type="text/css">
	.st0{fill:#00833E;}
</style>
<g>
	<g>
		<path d="M87.2,12.7c0,1.1-0.9,2-2,2c-1.1,0-2-0.9-2-2s0.9-2,2-2C86.3,10.6,87.2,11.6,87.2,12.7 M83.4,12.7c0,1,0.8,1.8,1.8,1.8
			c1,0,1.8-0.8,1.8-1.9c0-1-0.8-1.8-1.8-1.8C84.1,10.8,83.4,11.6,83.4,12.7 M84.4,11.5h0.9c0.5,0,0.8,0.2,0.8,0.7
			c0,0.4-0.3,0.6-0.6,0.6l0.7,1.1H86l-0.7-1.1h-0.6v1.1h-0.2V11.5z M84.6,12.6h0.5c0.4,0,0.8,0,0.8-0.5c0-0.4-0.3-0.5-0.6-0.5h-0.7
			V12.6z"/>
		<path d="M25,15.9c2.6,0,4.1,0.5,4.9,1.4c0.4,0.5,0.6,1.2,0.7,2.1c0,0.5-0.1,1-0.2,1.7l-1.8,8.5c-0.2,1.2-0.4,2.1-0.4,2.8
			c0,0.2,0,0.5,0.1,0.7h-4.8c0-0.1,0-0.1,0-0.2c0-0.4,0-0.7,0.1-1.1l0.1-0.7h-0.3l-0.1,0.2c-0.9,1.4-2.8,2.3-4.5,2.3
			c-1.4,0-2.4-0.4-3-1.1c-0.6-0.8-0.8-2-0.5-3.6c0.7-3.2,2.1-4.5,5.7-5.3c0,0,2.4-0.5,2.4-0.5c1.4-0.3,2.1-0.9,2.4-2.2
			c0.1-0.7,0.1-1.2-0.2-1.6c-0.3-0.3-0.7-0.5-1.3-0.5c-1.3,0-2,0.7-2.4,2.3h-4.3C18.7,16.5,22.7,15.9,25,15.9 M25,24.6
			c0,0-0.1,0.1-0.3,0.2c-0.3,0.1-1,0.2-1.4,0.3c-0.3,0.1-0.7,0.2-1.1,0.3c-1.1,0.4-1.6,1.2-1.9,2.5c-0.2,0.8-0.1,1.4,0.3,1.8
			c0.3,0.3,0.6,0.5,1.1,0.5c1.9,0,2.5-1.8,2.7-3.2L25,24.6L25,24.6z"/>
		<path d="M42.2,31.5c-1-1.2-1.2-3.2-0.5-6.7c1.5-7.6,4.4-9,6.9-9c1.2,0,3,0.4,3.2,2.5l0,0.3h0.3c0,0,0.4-2,0.5-2.4h4.7
			C57.3,17.1,54,33,54,33c-0.8,4-3.4,6-8.1,6c-4.4,0-5-2.6-5.1-3.4c0-0.3,0.1-1.2,0.1-1.2h4.6v0c0,0.4,0,1,0.2,1.2
			c0.2,0.2,0.3,0.5,1.1,0.5c1,0,1.9-0.3,2.3-2.4l0.8-3.8h-0.4l-0.1,0.2c-0.9,1.6-2.7,2.4-4.5,2.4C43.6,32.5,42.8,32.2,42.2,31.5
			 M46.9,24.4c-0.5,2.5-0.5,3.4,0,4c0.2,0.3,0.6,0.5,1.1,0.5c1.4,0,2.1-0.9,2.8-4.4c0.5-2.5,0.6-4.1,0.1-4.7
			c-0.2-0.3-0.6-0.4-1.1-0.4C48.4,19.5,47.6,21,46.9,24.4"/>
		<path d="M65,16.3c-0.2,0.8-3.3,16.2-3.5,16.7h-5.1c0.2-0.8,3.4-16.2,3.5-16.7H65z"/>
		<path d="M74.3,10.7c-0.2,0.8-4.5,21.8-4.6,22.3h-5.1c0.2-0.8,4.5-21.8,4.6-22.3H74.3z"/>
		<path d="M82.4,10.7c-0.2,0.8-4.5,21.8-4.6,22.3h-5.1c0.2-0.8,4.5-21.8,4.6-22.3H82.4z"/>
		<path d="M43,15.9c-1.7,0-3.6,1.2-4.6,3l-0.1,0.2h-0.4c0,0,0.4-2.2,0.6-2.8H38v0h-4.8c0,0.2,0.1,0.4,0.1,0.7c0,0.5-0.1,1.2-0.2,1.9
			c-0.9,4.5-2.8,13.5-2.9,14.2h5.1c0.3-1.6,1.9-9.2,1.9-9.2c0.5-2.3,1.8-3.4,4.2-3.4c0.4,0,0.8,0,1.1,0.1c0.1-0.5,0.8-4,1-4.6H43z"
			/>
		<path d="M1,32.2c-1.3-1.6-1.3-4.4-0.2-9.9c1.8-8.7,4.4-11.7,10.3-11.7c2.4,0,4,0.6,4.9,1.7C16.7,13,17,14,17,15.2
			c0,0.7-0.1,1.4-0.2,2.2c0,0-0.2,0.7-0.2,1.2h-5c0,0,0.4-2.4,0.4-2.9c0-0.6,0-0.9-0.3-1.2C11.4,14.2,11,14,10.5,14
			c-2.2,0-2.9,2.1-4.2,8.2c-1,4.7-1.3,6.9-0.6,7.8C6,30.3,6.4,30.5,7,30.5c1.7,0,2.4-1.5,3.3-5.6h5c-0.1,0.5-0.3,1.3-0.3,1.3
			c-1.1,5.1-4.1,7.7-8.9,7.7C3.6,33.8,1.9,33.3,1,32.2"/>
		<path class="st0" d="M65.4,14.3c0.4-9.2-10.7-16.1-21-13.9C34,2.5,29,11.5,27.7,14.3h1.7c2.3-3.8,4.6-6.8,8.5-7.9
			c2.5-0.7,4.4-0.5,9.2,2.1c2.2,1.2,7.2,4.9,12.6,5.7C62,14.6,65.4,14.3,65.4,14.3"/>
	</g>
	<path class="st0" d="M79.5,48c0.2-0.4,0.5-0.8,1.1-0.8c0.6,0,0.7,0.4,0.7,0.8H79.5z M82.3,48.7c0-0.2,0.1-0.4,0.1-0.6
		c0-1.1-0.7-1.7-1.8-1.7c-1.3,0-2.2,1.2-2.2,2.4c0,1.1,0.7,1.7,1.8,1.7c1.1,0,1.7-0.5,2.1-1.4h-1.1c-0.2,0.3-0.4,0.5-0.8,0.5
		c-0.6,0-0.9-0.3-0.9-0.8c0-0.1,0-0.1,0-0.2H82.3z M78.6,46.5h-1.1l-1.4,2.8h0l-0.2-2.8h-1.1l0.5,4h1.2L78.6,46.5z M74.7,45h-1.1
		l-0.2,0.9h1.1L74.7,45z M72.5,50.4h1.1l0.8-4h-1.1L72.5,50.4z M69.5,50.4h1.1l0.4-1.8c0.1-0.7,0.4-1.3,1.3-1.3c0.2,0,0.3,0,0.5,0.1
		l0.2-1.1c-0.1,0-0.2,0-0.3,0c-0.6,0-1.1,0.3-1.4,0.8l0,0l0.2-0.7h-1L69.5,50.4z M65.2,50.4h1.1l0.4-2.1c0.1-0.6,0.5-1.1,1.1-1.1
		c0.3,0,0.5,0.2,0.5,0.4c0,0.1,0,0.4-0.1,0.5l-0.5,2.3h1.1l0.5-2.3c0-0.1,0.1-0.5,0.1-0.7c0-0.7-0.4-1.1-1.2-1.1
		c-0.7,0-1.1,0.3-1.3,0.6h0l0.4-2h-1.1L65.2,50.4z M65,45.3h-1.1l-0.2,1.2H63l-0.2,0.7h0.7l-0.4,2.1c0,0.1-0.1,0.3-0.1,0.4
		c0,0.6,0.5,0.8,1,0.8c0.2,0,0.5,0,0.7,0l0.2-0.8c-0.1,0-0.3,0-0.4,0c-0.2,0-0.4,0-0.4-0.3c0,0,0-0.1,0-0.2l0.4-2h0.8l0.2-0.7h-0.8
		L65,45.3z"/>
	<rect x="15.8" y="45" width="1.1" height="0.9"/>
	<rect x="15.8" y="46.5" width="1.1" height="4"/>
	<g>
		<path d="M13.2,49.7c-0.7,0-1-0.6-1-1.3c0-0.6,0.2-1.3,0.9-1.3c0.7,0,1,0.7,1,1.3C14.2,49.1,14,49.7,13.2,49.7 M13.5,46.4
			c-0.5,0-0.9,0.2-1.2,0.6h0v-0.5h-1v5.3h1.1v-1.9h0c0.3,0.4,0.7,0.6,1.2,0.6c1.2,0,1.7-1,1.7-2C15.3,47.4,14.7,46.4,13.5,46.4"/>
	</g>
	<rect x="9.5" y="45" width="1.1" height="5.5"/>
	<g>
		<path d="M6.2,48c0-0.3,0.2-0.8,0.9-0.8c0.5,0,0.8,0.3,0.9,0.8H6.2z M7.1,46.4c-1.2,0-2,0.9-2,2.1c0,1.2,0.8,2.1,2,2.1
			c0.9,0,1.5-0.4,1.9-1.3H8c-0.1,0.2-0.4,0.5-0.9,0.5c-0.6,0-0.9-0.3-1-1H9C9.1,47.5,8.4,46.4,7.1,46.4"/>
		<path d="M36,48c0-0.3,0.2-0.8,0.9-0.8c0.5,0,0.8,0.3,0.9,0.8H36z M37,46.4c-1.2,0-2,0.9-2,2.1c0,1.2,0.8,2.1,2,2.1
			c0.9,0,1.5-0.4,1.9-1.3h-1c-0.1,0.2-0.4,0.5-0.9,0.5c-0.6,0-0.9-0.3-1-1h2.9C38.9,47.5,38.3,46.4,37,46.4"/>
		<path d="M33,46.4c-0.4,0-0.9,0.2-1.2,0.7h0V45h-1.1v5.5h1.1v-2.1c0-0.8,0.3-1.1,0.8-1.1c0.5,0,0.7,0.3,0.7,1v2.2h1.1V48
			C34.5,47,34.2,46.4,33,46.4"/>
		<path d="M19.8,46.4c-0.5,0-0.9,0.2-1.2,0.7h0v-0.5h-1v4h1.1v-2.1c0-0.8,0.3-1.1,0.8-1.1c0.5,0,0.7,0.3,0.7,1v2.2h1.1V48
			C21.2,47,20.9,46.4,19.8,46.4"/>
		<path d="M23.7,49.5c-0.7,0-0.9-0.6-0.9-1.2c0-0.6,0.3-1.1,0.9-1.1c0.7,0,0.9,0.6,0.9,1.2C24.6,49,24.3,49.5,23.7,49.5 M24.6,47
			L24.6,47c-0.3-0.5-0.7-0.6-1.2-0.6c-1.1,0-1.7,0.9-1.7,2c0,1.1,0.5,2,1.7,2c0.5,0,0.9-0.2,1.2-0.6h0v0.5c0,0.6-0.3,1-0.9,1
			c-0.4,0-0.7-0.1-0.8-0.5h-1.1c0.1,0.9,1,1.3,1.7,1.3c1.8,0,2-1.1,2-1.8v-3.7h-1V47z"/>
		<path d="M29.7,45.3h-1.1v1.2h-0.7v0.7h0.7v2.3c0,0.8,0.6,0.9,1.2,0.9c0.2,0,0.5,0,0.6,0v-0.8c-0.1,0-0.2,0-0.3,0
			c-0.4,0-0.5-0.1-0.5-0.5v-2h0.8v-0.7h-0.8V45.3z"/>
		<path d="M49.2,49.7c-0.7,0-1-0.6-1-1.3c0-0.6,0.2-1.3,1-1.3c0.7,0,1,0.6,1,1.3C50.2,49.1,50,49.7,49.2,49.7 M49.2,46.4
			c-1.2,0-2,0.8-2,2.1c0,1.3,0.8,2.1,2,2.1c1.2,0,2-0.8,2-2.1C51.3,47.2,50.5,46.4,49.2,46.4"/>
	</g>
	<polygon points="45.2,49.1 45.2,49.1 44.5,46.5 43.4,46.5 42.8,49.2 42.8,49.2 42,46.5 40.9,46.5 42.1,50.4 43.3,50.4 43.9,47.8 
		44,47.8 44.7,50.4 45.8,50.4 47,46.5 45.9,46.5 	"/>
	<g>
		<path d="M52.8,47.2L52.8,47.2l0-0.7h-1v4h1.1v-1.8c0-0.7,0.3-1.3,1.1-1.3c0.1,0,0.3,0,0.4,0v-1c-0.1,0-0.2,0-0.2,0
			C53.6,46.4,53,46.7,52.8,47.2"/>
		<path d="M58.2,49.7c-0.7,0-1-0.7-1-1.3c0-0.7,0.2-1.3,1-1.3c0.7,0,0.9,0.6,0.9,1.3C59.2,49.1,58.9,49.7,58.2,49.7 M59.1,45v2h0
			c-0.2-0.4-0.7-0.6-1.2-0.6c-1.2,0-1.8,1-1.8,2.1c0,1.1,0.6,2.1,1.8,2.1c0.5,0,0.9-0.2,1.2-0.6h0v0.5h1V45H59.1z"/>
	</g>
	<rect x="54.6" y="45" width="1.1" height="5.5"/>
	<polygon points="3.4,45 3.4,47.1 1.2,47.1 1.2,45 0,45 0,50.4 1.2,50.4 1.2,48.1 3.4,48.1 3.4,50.4 4.6,50.4 4.6,45 	"/>
</g>
</svg>
