<?xml version="1.0" encoding="utf-8"?>
<!-- Generator: Adobe Illustrator 23.0.1, SVG Export Plug-In . SVG Version: 6.00 Build 0)  -->
<svg version="1.1" id="Layer_1" xmlns="http://www.w3.org/2000/svg" xmlns:xlink="http://www.w3.org/1999/xlink" x="0px" y="0px"
	 viewBox="0 0 180 108" style="enable-background:new 0 0 180 108;" xml:space="preserve">
<style type="text/css">
	.st0{fill:#A03234;}
	.st1{fill:#231F20;}
	.st2{fill:none;stroke:#000000;stroke-width:0.5;stroke-miterlimit:10;}
</style>
<g>
	<path class="st0" d="M95.26,22.29H83.9c-1.35-1.85-2.96-3.23-4.82-4.15c-1.86-0.92-3.97-1.38-6.34-1.38
		c-1.91,0-3.73,0.36-5.45,1.09c-1.71,0.72-3.23,1.78-4.56,3.16c-1.42,1.45-2.51,3.13-3.29,5.02c-0.77,1.9-1.15,3.86-1.15,5.85
		c0,4.4,1.4,8.09,4.19,11.06c2.8,2.98,6.22,4.47,10.27,4.47c2.33,0,4.42-0.44,6.28-1.32c1.86-0.88,3.36-2.15,4.52-3.81h11.36
		c-2.22,4.9-5.18,8.58-8.88,11.03c-3.69,2.46-8.11,3.69-13.25,3.69c-3.57,0-6.85-0.69-9.87-2.08c-3-1.39-5.71-3.43-8.1-6.16
		c-2.03-2.26-3.56-4.84-4.6-7.73c-1.04-2.89-1.57-5.98-1.57-9.27c0-3.34,0.63-6.52,1.89-9.51c1.26-3,3.12-5.73,5.55-8.19
		c2.31-2.28,4.87-4.02,7.69-5.19c2.81-1.18,5.84-1.77,9.09-1.77c5.19,0,9.63,1.25,13.32,3.76C89.89,13.35,92.91,17.17,95.26,22.29z"
		/>
</g>
<g>
	<path class="st0" d="M85.04,38.04h11.35c1.35-1.85,2.96-3.23,4.82-4.15c1.86-0.92,3.97-1.38,6.34-1.38c1.91,0,3.72,0.36,5.45,1.09
		c1.71,0.72,3.24,1.78,4.56,3.16c1.42,1.45,2.51,3.13,3.29,5.02c0.76,1.9,1.16,3.86,1.16,5.85c0,4.4-1.41,8.09-4.2,11.06
		c-2.8,2.98-6.22,4.47-10.27,4.47c-2.33,0-4.42-0.44-6.28-1.32c-1.86-0.88-3.37-2.15-4.53-3.81H85.36
		c2.23,4.89,5.18,8.58,8.88,11.03c3.69,2.46,8.11,3.69,13.24,3.69c3.57,0,6.85-0.7,9.87-2.08c3-1.37,5.71-3.43,8.1-6.16
		c2.03-2.26,3.56-4.84,4.61-7.73c1.05-2.89,1.56-5.98,1.56-9.27c0-3.34-0.63-6.52-1.89-9.51c-1.26-3-3.12-5.73-5.55-8.19
		c-2.31-2.29-4.87-4.02-7.69-5.19c-2.81-1.18-5.84-1.77-9.08-1.77c-5.2,0-9.64,1.25-13.33,3.76C90.41,29.1,87.38,32.92,85.04,38.04z
		"/>
</g>
<g>
	<path class="st1" d="M20.9,89.38c-0.77-0.22-1.38-0.39-1.87-0.5c-0.47-0.1-0.95-0.16-1.42-0.16c-1.19,0-2.16,0.3-2.92,0.92
		c-0.76,0.62-1.14,1.42-1.14,2.41c0,1.01,0.38,1.83,1.16,2.44c0.78,0.61,1.8,0.91,3.07,0.91c0.52,0,1.01-0.06,1.48-0.17
		c0.47-0.11,1.07-0.3,1.79-0.58l-0.79,5.35c-0.61,0.11-1.15,0.19-1.61,0.25c-0.46,0.04-0.92,0.07-1.38,0.07
		c-2.99,0-5.43-0.76-7.29-2.29c-1.87-1.53-2.8-3.52-2.8-5.96c0-1.23,0.24-2.33,0.72-3.34c0.48-1,1.19-1.85,2.11-2.52
		c0.96-0.81,2.01-1.39,3.18-1.78c1.17-0.38,2.41-0.57,3.71-0.57c0.57,0,1.11,0.02,1.6,0.08c0.49,0.06,1.01,0.16,1.58,0.32
		L20.9,89.38z"/>
	<path class="st1" d="M39.02,83.82c1.36,0,2.66,0.19,3.85,0.57c1.2,0.39,2.29,1.01,3.26,1.87c0.9,0.62,1.61,1.44,2.09,2.45
		c0.5,1.02,0.74,2.13,0.74,3.34c0,1.21-0.25,2.33-0.74,3.34c-0.48,1.01-1.18,1.8-2.09,2.36c-0.99,0.94-2.08,1.6-3.29,1.98
		c-1.2,0.38-2.48,0.57-3.83,0.57c-1.35,0-2.62-0.19-3.8-0.57c-1.19-0.38-2.29-1.04-3.28-1.95c-0.91-0.59-1.61-1.38-2.09-2.4
		c-0.5-1-0.73-2.13-0.73-3.34c0-1.22,0.24-2.33,0.72-3.33c0.48-1,1.21-1.89,2.18-2.67c0.92-0.73,1.99-1.28,3.19-1.67
		C36.41,84.02,37.68,83.82,39.02,83.82z M39.02,95.37c1.08,0,1.94-0.29,2.57-0.88c0.63-0.6,0.95-1.41,0.95-2.43
		c0-1.01-0.32-1.82-0.95-2.41c-0.63-0.59-1.49-0.88-2.57-0.88c-1.07,0-1.91,0.29-2.54,0.88c-0.62,0.57-0.93,1.38-0.93,2.41
		c0,1.03,0.31,1.84,0.93,2.43C37.1,95.08,37.95,95.37,39.02,95.37z"/>
	<polygon class="st1" points="57.55,100.18 57.55,84.19 63.6,84.19 68.55,91.33 68.55,84.24 74.7,83.91 74.7,99.94 68.66,99.94 
		63.72,92.56 63.72,99.84 	"/>
	<path class="st1" d="M97.97,89.38c-0.77-0.22-1.38-0.39-1.87-0.5c-0.47-0.1-0.95-0.16-1.42-0.16c-1.19,0-2.16,0.3-2.93,0.92
		c-0.75,0.62-1.13,1.42-1.13,2.41c0,1.01,0.38,1.83,1.16,2.44c0.77,0.61,1.8,0.91,3.07,0.91c0.52,0,1.01-0.06,1.49-0.17
		c0.47-0.11,1.07-0.3,1.79-0.58l-0.79,5.35c-0.61,0.11-1.15,0.19-1.61,0.25c-0.46,0.04-0.92,0.07-1.38,0.07
		c-3,0-5.43-0.76-7.29-2.29c-1.87-1.53-2.8-3.52-2.8-5.96c0-1.23,0.24-2.33,0.72-3.34c0.48-1,1.19-1.85,2.1-2.52
		c0.96-0.81,2.01-1.39,3.18-1.78c1.17-0.38,2.41-0.57,3.71-0.57c0.57,0,1.11,0.02,1.6,0.08c0.5,0.06,1.01,0.16,1.58,0.32
		L97.97,89.38z"/>
	<path class="st1" d="M116.63,83.82c1.36,0,2.65,0.19,3.85,0.57c1.2,0.39,2.29,1.01,3.26,1.87c0.9,0.62,1.61,1.44,2.09,2.45
		c0.49,1.02,0.74,2.13,0.74,3.34c0,1.21-0.25,2.33-0.74,3.34c-0.48,1.01-1.18,1.8-2.09,2.36c-0.99,0.94-2.08,1.6-3.29,1.98
		c-1.21,0.38-2.47,0.57-3.82,0.57c-1.35,0-2.62-0.19-3.81-0.57c-1.19-0.38-2.29-1.04-3.27-1.95c-0.91-0.59-1.61-1.38-2.09-2.4
		c-0.49-1-0.73-2.13-0.73-3.34c0-1.22,0.24-2.33,0.72-3.33c0.49-1,1.22-1.89,2.18-2.67c0.92-0.73,1.99-1.28,3.18-1.67
		C114.02,84.02,115.29,83.82,116.63,83.82z M116.63,95.37c1.08,0,1.93-0.29,2.56-0.88c0.63-0.6,0.95-1.41,0.95-2.43
		c0-1.01-0.32-1.82-0.95-2.41c-0.63-0.59-1.49-0.88-2.56-0.88c-1.07,0-1.92,0.29-2.55,0.88c-0.62,0.57-0.93,1.38-0.93,2.41
		c0,1.03,0.32,1.84,0.93,2.43C114.72,95.08,115.56,95.37,116.63,95.37z"/>
	<path class="st1" d="M133.8,100.3V84.19h7.51c2.31,0,4.07,0.4,5.32,1.22c1.25,0.82,1.87,1.99,1.87,3.52c0,0.95-0.25,1.78-0.75,2.5
		c-0.51,0.71-1.19,1.24-2.06,1.59l3.41,6.59l-6.55,0.69l-2.42-6.66v6.27L133.8,100.3z M140.12,88.78v3.26h-0.19
		c0.72,0,1.27-0.15,1.66-0.43c0.37-0.28,0.56-0.69,0.56-1.23c0-0.52-0.19-0.92-0.56-1.19c-0.37-0.28-0.92-0.42-1.66-0.42H140.12z"/>
	<path class="st1" d="M156.58,99.94V84.19h7.22c0.91,0,1.8,0.1,2.69,0.3c0.89,0.2,1.72,0.54,2.52,1.01c1.25,0.6,2.24,1.48,2.98,2.66
		c0.74,1.18,1.11,2.48,1.11,3.89c0,1.43-0.37,2.74-1.11,3.9c-0.74,1.18-1.74,2.07-2.98,2.67c-0.8,0.48-1.64,0.82-2.52,1.01
		c-0.88,0.2-1.78,0.3-2.69,0.3H156.58z M162.96,89.09v5.94h-0.07c1.22,0,2.15-0.26,2.8-0.78c0.66-0.52,0.99-1.25,0.99-2.21
		c0-0.95-0.33-1.68-0.99-2.19c-0.66-0.51-1.61-0.77-2.85-0.77H162.96z"/>
</g>
<g>
	<g>
		<g>
			<path d="M133.5,71.96c0,0.02,0,0.04-0.01,0.05c-0.01,0.02-0.03,0.03-0.05,0.04c-0.03,0.01-0.06,0.02-0.11,0.02
				c-0.05,0.01-0.11,0.01-0.19,0.01c-0.07,0-0.12,0-0.17-0.01c-0.04,0-0.08-0.01-0.1-0.03c-0.03-0.01-0.05-0.03-0.06-0.05
				c-0.01-0.02-0.03-0.05-0.04-0.08l-0.46-1.19c-0.05-0.13-0.11-0.26-0.17-0.37c-0.06-0.11-0.13-0.21-0.21-0.29
				c-0.08-0.08-0.18-0.15-0.29-0.19c-0.11-0.04-0.24-0.07-0.39-0.07h-0.45v2.15c0,0.02-0.01,0.04-0.02,0.05
				c-0.01,0.02-0.03,0.03-0.05,0.04c-0.03,0.01-0.06,0.02-0.1,0.02c-0.04,0.01-0.1,0.01-0.16,0.01c-0.06,0-0.12,0-0.16-0.01
				c-0.04-0.01-0.08-0.01-0.1-0.02c-0.03-0.01-0.04-0.02-0.05-0.04c-0.01-0.02-0.02-0.03-0.02-0.05v-4.68c0-0.1,0.03-0.17,0.08-0.21
				c0.05-0.04,0.11-0.06,0.17-0.06h1.07c0.13,0,0.23,0,0.32,0.01c0.08,0.01,0.16,0.01,0.23,0.02c0.2,0.03,0.37,0.09,0.52,0.16
				c0.15,0.07,0.28,0.17,0.38,0.28c0.1,0.11,0.18,0.24,0.23,0.38c0.05,0.14,0.08,0.3,0.08,0.48c0,0.17-0.02,0.32-0.07,0.46
				c-0.04,0.13-0.11,0.25-0.2,0.36c-0.09,0.1-0.19,0.19-0.31,0.27c-0.12,0.08-0.25,0.14-0.4,0.19c0.08,0.04,0.16,0.08,0.23,0.14
				c0.07,0.06,0.13,0.12,0.19,0.2c0.06,0.08,0.11,0.17,0.17,0.27c0.05,0.1,0.1,0.22,0.16,0.34l0.45,1.11
				c0.04,0.09,0.06,0.16,0.07,0.2C133.49,71.91,133.5,71.94,133.5,71.96z M132.48,68.41c0-0.2-0.04-0.37-0.13-0.5
				c-0.09-0.14-0.24-0.23-0.45-0.29c-0.06-0.02-0.14-0.03-0.22-0.04c-0.08-0.01-0.19-0.01-0.32-0.01h-0.57v1.7h0.66
				c0.18,0,0.33-0.02,0.46-0.06c0.13-0.04,0.24-0.1,0.32-0.18c0.09-0.08,0.15-0.17,0.19-0.27
				C132.46,68.65,132.48,68.53,132.48,68.41z"/>
		</g>
	</g>
	<path class="st2" d="M134.94,69.43c0,1.83-1.48,3.31-3.31,3.31c-1.83,0-3.31-1.48-3.31-3.31c0-1.83,1.48-3.31,3.31-3.31
		C133.45,66.11,134.94,67.6,134.94,69.43z"/>
</g>
</svg>
