<?xml version="1.0" encoding="UTF-8" standalone="no"?>
<!-- Created with Inkscape (http://www.inkscape.org/) by Marsupilami -->
<svg
   xmlns:svg="http://www.w3.org/2000/svg"
   xmlns="http://www.w3.org/2000/svg"
   version="1.0"
   width="1024"
   height="120"
   viewBox="0 0 151.28624 17.696394"
   id="svg2944">
  <defs
     id="defs2946" />
  <g
     transform="translate(-296.08627,-46.914806)"
     id="layer1">
    <path
       d="M 96.28125,0 C 95.167964,-0.026084374 93.943769,0.21688125 92.96875,0.84375 L 75.09375,13.1875 C 74.507515,13.650063 74.125,14.352487 74.125,15.15625 C 74.124998,16.557537 75.25625,17.6875 76.65625,17.6875 C 77.271246,17.6875 77.841262,17.487475 78.28125,17.125 L 83.84375,13.21875 L 108.0625,13.21875 L 113.625,17.125 C 114.05999,17.474963 114.61747,17.6875 115.21875,17.6875 C 116.61874,17.6875 117.75,16.557538 117.75,15.15625 C 117.75,14.322512 117.34254,13.5862 116.71875,13.125 L 98.9375,0.78125 C 98.380626,0.32875625 97.394536,0.026084374 96.28125,0 z M 112.84375,0.53125 C 111.44497,0.53125003 110.3125,1.6612875 110.3125,3.0625 C 110.3125,4.1187876 110.95753,5.024925 111.875,5.40625 L 128.3125,11.4375 L 128.34375,15.15625 C 128.34375,16.557537 129.4125,17.6875 130.8125,17.6875 C 132.21122,17.6875 133.34375,16.557538 133.34375,15.15625 L 133.28125,11.4375 L 149.71875,5.40625 C 150.63879,5.0249248 151.28125,4.1187875 151.28125,3.0625 C 151.28125,1.6612876 150.14873,0.53125 148.75,0.53125 C 148.4225,0.53125003 148.12871,0.5762625 147.84375,0.6875 L 130.8125,6.875 L 113.78125,0.6875 C 113.49377,0.57626252 113.16998,0.53125 112.84375,0.53125 z M 8.5625,0.5625 C 3.8374751,0.56250001 0,4.395 0,9.125 C 1.2079227e-13,13.85255 3.837475,17.6875 8.5625,17.6875 L 32.90625,17.6875 C 34.293764,17.6875 35.4375,16.572475 35.4375,15.1875 C 35.437498,13.80125 34.293762,12.65625 32.90625,12.65625 L 8.5625,12.65625 C 6.6062501,12.65625 5.25,11.08125 5.25,9.125 C 5.25,7.1687371 6.60625,5.59375 8.5625,5.59375 L 32.90625,5.59375 C 34.293764,5.5937498 35.4375,4.4474625 35.4375,3.0625 C 35.437498,1.6762376 34.293762,0.5625 32.90625,0.5625 L 8.5625,0.5625 z M 40.21875,0.5625 C 38.898749,0.56127501 37.71875,1.6037875 37.71875,2.71875 L 37.75,15.15625 C 37.750001,16.557537 38.788763,17.6875 40.1875,17.6875 C 41.587488,17.6875 42.75,16.557538 42.75,15.15625 L 42.75,13.78125 L 64.78125,13.78125 L 67.65625,16.8125 C 68.121264,17.346262 68.800013,17.6875 69.5625,17.6875 C 70.961278,17.6875 72.09375,16.557538 72.09375,15.15625 C 72.093751,14.536287 71.869987,13.970012 71.5,13.53125 L 69.375,11.34375 C 70.770041,10.236262 71.65625,8.5437125 71.65625,6.625 C 71.656248,3.2812625 68.966262,0.5625 65.625,0.5625 L 40.21875,0.5625 z M 95.875,5.15625 C 96.257038,5.1303188 96.644375,5.2212625 97.0625,5.5 L 102.5625,9.34375 L 89.34375,9.34375 L 94.78125,5.5625 C 95.12875,5.3187376 95.492962,5.1821812 95.875,5.15625 z M 42.71875,5.59375 L 65.34375,5.59375 C 66.213739,5.5937502 66.90625,6.317525 66.90625,7.1875 C 66.906252,8.0563375 66.213737,8.75 65.34375,8.75 L 42.71875,8.78125 L 42.71875,5.59375 z "
       transform="translate(296.08627,46.914806)"
       style="fill:#005596;fill-opacity:1;fill-rule:nonzero;stroke:none"
       id="path4463" />
  </g>
</svg>
