<?xml version="1.0" encoding="utf-8"?>
<!-- Generator: Adobe Illustrator 22.1.0, SVG Export Plug-In . SVG Version: 6.00 Build 0)  -->
<svg version="1.1" id="Layer_1" xmlns="http://www.w3.org/2000/svg" xmlns:xlink="http://www.w3.org/1999/xlink" x="0px" y="0px"
	 viewBox="0 0 220 186.9" style="enable-background:new 0 0 220 186.9;" xml:space="preserve">
<style type="text/css">
	.st0{fill:#12A9E1;}
</style>
<g>
	<g>
		<path class="st0" d="M31.8,119.3c-1.9,0-3.9,0.7-3.9,2.5c0,1.6,1.8,2.1,4,2.4c2.9,0.5,5.8,1,5.8,4.4c0,3.3-3.2,4.4-6,4.4
			c-2.6,0-5.1-0.9-6.2-3.4l1.5-0.9c0.9,1.7,2.9,2.6,4.7,2.6c1.8,0,4.1-0.6,4.1-2.7c0-1.8-2-2.3-4.2-2.7c-2.8-0.4-5.6-1.1-5.6-4.1
			c0-3.1,3.1-4.1,5.6-4.1c2.2,0,4.3,0.4,5.6,2.7l-1.4,0.9C35.1,119.9,33.4,119.3,31.8,119.3z"/>
		<path class="st0" d="M42.2,132.7h-1.8V118H47c6.7,0,6.7,9.9,0,9.9h-4.9V132.7z M47,119.7h-4.9v6.5H47
			C51.4,126.2,51.4,119.7,47,119.7z"/>
		<path class="st0" d="M59.5,119.3c-1.9,0-3.9,0.7-3.9,2.5c0,1.6,1.8,2.1,4,2.4c2.9,0.5,5.8,1,5.8,4.4c0,3.3-3.2,4.4-6,4.4
			c-2.6,0-5.1-0.9-6.2-3.4l1.5-0.9c0.9,1.7,2.9,2.6,4.7,2.6c1.8,0,4.1-0.6,4.1-2.7c0-1.8-2-2.3-4.2-2.7c-2.8-0.4-5.6-1.1-5.6-4.1
			c0-3.1,3.1-4.1,5.6-4.1c2.2,0,4.3,0.4,5.6,2.7l-1.4,0.9C62.8,119.9,61.1,119.3,59.5,119.3z"/>
		<path class="st0" d="M80.5,132.9c-5.2,0-7.6-3.6-7.6-7.5c0-3.9,2.5-7.6,7.6-7.6c1.9,0,3.9,0.7,5.4,2.2l-1.3,1.2
			c-1.1-1.1-2.6-1.6-4.1-1.6c-3.9,0-5.8,2.9-5.8,5.9c0,3,1.9,5.8,5.8,5.8c1.5,0,3.1-0.6,4.2-1.7l1.3,1.3
			C84.4,132.2,82.5,132.9,80.5,132.9z"/>
		<path class="st0" d="M101.8,125.4c0,3.8-2.4,7.6-7.4,7.6c-5,0-7.5-3.7-7.5-7.6c0-4.3,2.9-7.6,7.5-7.6
			C99.3,117.8,101.8,121.5,101.8,125.4z M94.4,119.4c-3.7,0-5.7,2.7-5.7,6c0,3,1.8,5.9,5.7,5.9c3.9,0,5.6-3,5.6-5.9
			C100,122.4,98.2,119.5,94.4,119.4z"/>
		<path class="st0" d="M112,128.1h-0.4l-5.3-7.5v12.1h-1.8V118h2.2l5.2,7.5l5.1-7.5h2.2v14.7h-1.8v-12L112,128.1z"/>
		<path class="st0" d="M130.2,128.1h-0.4l-5.3-7.5v12.1h-1.8V118h2.2l5.2,7.5l5.1-7.5h2.2v14.7h-1.8v-12L130.2,128.1z"/>
		<path class="st0" d="M140.9,118h10.3v1.7h-8.5v4.6h8.2v1.7h-8.2v5h8.8v1.7h-10.6V118z"/>
		<path class="st0" d="M159.4,127.4h-3.6v5.3h-1.8V118h6.7c3.3,0,5,2.3,5,4.7c0,2.2-1.2,4.3-4.2,4.5l4.8,5.4H164L159.4,127.4z
			 M163.9,122.7c0-1.5-1-3.1-3.1-3.1h-4.8v6.1h4.8C162.8,125.8,163.9,124.4,163.9,122.7z"/>
		<path class="st0" d="M175.2,132.9c-5.2,0-7.6-3.6-7.7-7.5c0-3.9,2.5-7.6,7.7-7.6c1.9,0,3.9,0.7,5.4,2.2l-1.3,1.2
			c-1.1-1.1-2.6-1.6-4.1-1.6c-3.9,0-5.8,2.9-5.8,5.9c0,3,1.9,5.8,5.8,5.8c1.5,0,3.1-0.6,4.2-1.7l1.3,1.3
			C179.2,132.2,177.2,132.9,175.2,132.9z"/>
		<path class="st0" d="M182.8,118h10.3v1.7h-8.5v4.6h8.2v1.7h-8.2v5h8.8v1.7h-10.6V118z"/>
	</g>
	<g>
		<path class="st0" d="M147.4,64.1c0-0.6-0.1-1.2-0.2-1.7c-0.1-0.5-0.1-0.9-0.2-1.3c-0.1-0.6-0.2-1-0.2-1c0,0,0-0.1,0-0.2
			c0-0.1,0-0.1,0-0.1c-1.9-7.8-6.1-14-11.8-17.5c-4.3-2.6-9.3-3.5-14.1-2.3l-16.4,4c-0.2,0-0.3,0-0.5,0.1L96.5,46
			c-1.2,0.3-2.5,0.9-3.6,1.7c-1.1,0.7-2,1.6-2.9,2.5c-0.9,0.9-1.6,2-2.2,3c-0.6,1.1-0.9,2.1-1.1,3.2c-0.2,1.1-0.1,2.1,0.2,3
			c0.3,0.9,0.8,1.5,1.5,2c0.7,0.5,1.5,0.8,2.4,1c0.9,0.2,2,0.1,3.1-0.1l3-0.8c0.7-0.1,1.2-0.1,1.6,0.3c0.4,0.3,0.6,0.8,0.5,1.5
			c-0.1,0.7-0.4,1.3-1,1.9s-1.2,1-1.9,1.2L87,68.8c-0.4,0.1-0.9,0.3-1.2,0.6c-3.6,2-3.3,6.1-3.3,6.1l11.3-3l1.7-0.5
			c1.2-0.3,2.3-0.8,3.3-1.5c0.7-0.5,1.4-1,2-1.6l-1.2,8.2l-1.4,9.5c0,0,5.2-0.4,6.3-6c0-0.1,0-0.3,0.1-0.4c0.1-0.3,0.2-0.5,0.2-0.8
			l0.2-1.3l4.7-1.2c1.4-0.4,2.8-1,4.2-1.8c0.1-0.1,0.3-0.2,0.4-0.3c0,0.1,0,0.2-0.1,0.3c-0.2,1.1-0.1,2.1,0.2,3
			c0.3,0.9,0.8,1.5,1.5,2c0.7,0.5,1.5,0.8,2.4,1c0.9,0.2,2,0.1,3.1-0.1l3-0.8c0.7-0.1,1.2,0,1.6,0.3c0.4,0.3,0.6,0.8,0.5,1.5
			c-0.1,0.7-0.4,1.3-1,1.9c-0.6,0.6-1.2,1-1.9,1.2l-10.9,2.7c0,0,0,0,0,0l-16,3.9c-3.4,0.8-6.9,0.2-10.1-1.7
			c-4.5-2.8-7.9-7.9-9.5-14.5c0,0,0,0,0,0c0-0.1-0.1-0.4-0.2-0.8c-0.1-0.3-0.1-0.6-0.2-1c-0.1-0.4-0.2-0.9-0.3-1.4
			c-0.2-1.1-0.3-2.4-0.4-3.9c0-1.5,0-3.3,0.2-5.1c0.2-1.9,0.6-3.9,1.3-6c0.7-2.1,1.6-4.2,2.8-6.3c1.2-2.1,2.6-4.1,4.3-6l0.3-0.4l0,0
			c0,0,0,0,0,0l0,0l0.1-0.1l0.2-0.2l0.7-0.7c0.2-0.2,0.5-0.5,0.7-0.7l0.7-0.6c0.5-0.4,1-0.8,1.5-1.2c0.5-0.4,1-0.8,1.6-1.2
			c2.1-1.5,4.4-2.7,6.8-3.7c2.4-0.9,4.9-1.6,7.3-1.9c0.3,0,0.6-0.1,0.9-0.1c0.2,0,0.3,0,0.5-0.1c0.4-0.1,0.7-0.4,0.7-0.9
			c0-0.4-0.3-0.7-0.7-0.7c-0.2,0-0.4,0-0.6,0c-0.3,0-0.6,0.1-1,0.1c-2.6,0.2-5.2,0.7-7.8,1.6c-2.6,0.8-5.2,2-7.5,3.5
			c-0.6,0.4-1.2,0.8-1.8,1.1c-0.6,0.4-1.1,0.8-1.7,1.2L85,40.6c-0.3,0.2-0.6,0.5-0.8,0.7L83.4,42l-0.2,0.2l-0.1,0.1L83,42.3
			l-0.4,0.4c-2,1.9-3.7,4.1-5.2,6.3c-1.5,2.2-2.6,4.5-3.5,6.8c-0.9,2.3-1.5,4.5-1.9,6.6c-0.4,2.1-0.6,4.1-0.6,5.8
			c-0.1,1.8,0,3.3,0.1,4.5c0,0.6,0.1,1.2,0.2,1.7c0.1,0.5,0.1,0.9,0.2,1.3c0.1,0.6,0.2,1,0.2,1c0,0.1,0,0.1,0,0.2c0,0,0,0.1,0,0.1
			c1.9,7.8,6.1,14,11.8,17.5c3.1,1.9,6.4,2.8,9.8,2.8c1.4,0,2.8-0.2,4.2-0.5l13.6-3.3c0.1,0,0.3,0,0.4-0.1l4.7-1.1l1.7-0.4
			c0,0,0.1,0,0.1,0l4.4-1.1c1.2-0.3,2.3-0.8,3.3-1.5c1.1-0.7,2-1.5,2.9-2.4c0.8-0.9,1.6-1.9,2.1-3c0.6-1.1,0.9-2.2,1.1-3.2
			c0.2-1.1,0.1-2.1-0.2-3c-0.3-0.9-0.8-1.6-1.5-2.1c-0.7-0.5-1.5-0.9-2.4-1c-0.9-0.2-1.9-0.1-3,0.2l-2.9,0.8
			c-0.7,0.2-1.2,0.1-1.7-0.2c-0.4-0.3-0.6-0.8-0.5-1.5c0.1-0.7,0.5-1.4,1-2c0.5-0.6,1.2-1,1.9-1.2l10.2-2.6c0.4-0.1,0.8-0.3,1.2-0.5
			c3.7-1.9,3.4-6.1,3.4-6.1l-3.4,0.9c-0.1,0-0.2,0-0.4,0.1l-10.2,2.6c-0.9,0.2-1.7,0.6-2.5,1c0.2-0.6,0.3-1.2,0.4-1.8
			c0.2-1.4,0.1-2.6-0.3-3.7c-0.4-1.1-1-2-1.8-2.6c-0.8-0.7-1.8-1.1-3-1.3c-1.2-0.2-2.5-0.1-4,0.3l-7.6,1.9c-0.1,0-0.3,0.1-0.4,0.1
			c0,0,0,0,0,0c-0.3-0.9-0.8-1.6-1.5-2.1c-0.7-0.5-1.5-0.9-2.4-1c-0.9-0.2-1.9-0.1-3,0.2l-2.9,0.8c-0.7,0.2-1.2,0.1-1.7-0.2
			c-0.4-0.3-0.6-0.8-0.5-1.4c0.1-0.7,0.5-1.4,1-2c0.5-0.6,1.2-1,1.9-1.2l6-1.5l20.7-5.1c3.4-0.8,6.9-0.2,10.1,1.7
			c4.5,2.8,7.9,7.9,9.5,14.5c0,0,0,0,0,0c0,0.1,0.1,0.4,0.2,0.9c0.1,0.3,0.1,0.6,0.2,1c0.1,0.4,0.2,0.9,0.3,1.4
			c0.2,1.1,0.3,2.4,0.4,3.9c0,1.5,0,3.3-0.2,5.2c-0.2,1.9-0.7,3.9-1.3,6c-0.7,2.1-1.6,4.2-2.8,6.3c-1.2,2.1-2.7,4.1-4.4,6l-0.3,0.3
			l-0.3,0.4c-0.2,0.2-0.5,0.5-0.7,0.7c-0.4,0.4-0.9,0.9-1.4,1.3c-1,0.8-2,1.6-3.1,2.3c-2.2,1.4-4.5,2.6-6.9,3.6
			c-2.4,0.9-4.9,1.6-7.3,2c-0.6,0.1-1.2,0.2-1.8,0.3c-0.3,0.1-0.6,0.5-0.5,0.8c0,0.4,0.3,0.6,0.7,0.7c0.6,0,1.3-0.1,1.9-0.2
			c2.6-0.3,5.2-0.8,7.8-1.6c2.6-0.8,5.2-1.9,7.6-3.3c1.2-0.7,2.4-1.5,3.5-2.3c0.6-0.4,1.1-0.9,1.6-1.3c0.3-0.2,0.5-0.5,0.8-0.7
			l0.4-0.3l0.4-0.4c2-1.9,3.7-4.1,5.2-6.3c1.5-2.2,2.6-4.5,3.5-6.8c0.9-2.3,1.5-4.5,1.9-6.7c0.4-2.1,0.6-4.1,0.6-5.8
			C147.6,66.9,147.5,65.3,147.4,64.1z M107.1,63.5l4.7-1.2c0.6-0.2,1.2-0.2,1.8-0.1c0.5,0.1,1,0.3,1.4,0.6c0.4,0.3,0.6,0.7,0.8,1.2
			c0.2,0.5,0.2,1,0.1,1.7c-0.1,0.6-0.3,1.3-0.6,1.9c-0.3,0.6-0.7,1.2-1.2,1.7c-0.5,0.5-1,1-1.6,1.4c-0.6,0.4-1.2,0.7-1.9,0.8
			l-4.7,1.2L107.1,63.5z"/>
	</g>
	<g>
		<path class="st0" d="M142.3,93.6h-1v-0.5c0.9,0,1.7,0,2.6,0v0.5h-1v2.7h-0.5V93.6z"/>
		<path class="st0" d="M147,93.9l-1.1,1.5h-0.1l-1.1-1.5v2.4h-0.5v-3.1c0.2,0,0.4,0,0.6,0l1,1.5l1-1.5h0.6v3.1H147V93.9z"/>
	</g>
</g>
<g>
	<path class="st0" d="M54,153.9v-6.3h1v6.3H54z"/>
	<path class="st0" d="M60.9,152.1v-4.5h1v6.3h-0.8l-3.6-4.4v4.4h-1v-6.3h0.8L60.9,152.1z"/>
	<path class="st0" d="M63.5,153.9v-6.3H68v1h-3.4v1.9h3.3v0.9h-3.3v2.5H63.5z"/>
	<path class="st0" d="M69.2,153.9v-6.3h1v6.3H69.2z"/>
	<path class="st0" d="M76.1,152.1v-4.5h1v6.3h-0.8l-3.6-4.4v4.4h-1v-6.3h0.8L76.1,152.1z"/>
	<path class="st0" d="M78.7,153.9v-6.3h1v6.3H78.7z"/>
	<path class="st0" d="M82.7,148.5h-2.1v-0.9c1.8,0,3.3,0,5.1,0v0.9h-2.1v5.4h-1V148.5z"/>
	<path class="st0" d="M91.4,153.9h-4.7c0-2.1,0-4.2,0-6.3h4.6v1h-3.6v1.7h3.5v0.9h-3.5v1.7h3.6V153.9z"/>
	<path class="st0" d="M100.4,153.9h-1.2l-1.9-2.2h-1.3v2.2h-1v-6.3c1,0,2,0,2.9,0c1.5,0,2.2,1,2.2,2.1c0,0.9-0.5,1.8-1.7,2l1.9,2.1
		L100.4,153.9z M95.9,148.5v2.3h1.9c0.8,0,1.2-0.5,1.2-1.1c0-0.6-0.4-1.2-1.2-1.2H95.9z"/>
	<path class="st0" d="M106.1,153.9h-4.7c0-2.1,0-4.2,0-6.3h4.6v1h-3.6v1.7h3.5v0.9h-3.5v1.7h3.6V153.9z"/>
	<path class="st0" d="M108.8,148.5h-2.1v-0.9c1.8,0,3.3,0,5.1,0v0.9h-2.1v5.4h-1V148.5z"/>
	<path class="st0" d="M116.6,152.6h-3.4l-0.6,1.3h-1.1l2.8-6.3h1.1l2.8,6.3h-1.1L116.6,152.6z M114.9,148.6l-1.3,3h2.7L114.9,148.6z
		"/>
	<path class="st0" d="M119.2,153.9v-6.3h1v6.3H119.2z"/>
	<path class="st0" d="M122.7,147.6v5.4h3.3v0.9h-4.3v-6.3H122.7z"/>
	<path class="st0" d="M130,152v1.9h-1v-6.3c1,0,2,0,2.9,0c3,0,3,4.4,0,4.4H130z M130,151h1.9c1.7,0,1.7-2.5,0-2.5H130V151z"/>
	<path class="st0" d="M141.3,150.8c0,1.7-1,3.3-3.2,3.3c-2.2,0-3.2-1.6-3.2-3.3c0-1.9,1.3-3.3,3.2-3.3
		C140.2,147.5,141.3,149.1,141.3,150.8z M138.1,153.1c1.6,0,2.2-1.1,2.2-2.3c0-1.2-0.7-2.4-2.2-2.4c-1.5,0-2.2,1-2.2,2.4
		C135.9,151.9,136.5,153.1,138.1,153.1z"/>
	<path class="st0" d="M148.8,153.9h-0.9l-0.8-2.2l-0.7-2.1l-0.7,2.1l-0.8,2.2H144l-2.3-6.3h1.1l1.6,4.9l1.6-4.9h0.6l1.7,4.9l1.6-4.9
		h1.1L148.8,153.9z"/>
	<path class="st0" d="M156.6,153.9H152c0-2.1,0-4.2,0-6.3h4.6v1H153v1.7h3.5v0.9H153v1.7h3.6V153.9z"/>
	<path class="st0" d="M163.4,153.9h-1.2l-1.9-2.2h-1.3v2.2h-1v-6.3c1,0,2,0,2.9,0c1.5,0,2.2,1,2.2,2.1c0,0.9-0.5,1.8-1.7,2l1.9,2.1
		L163.4,153.9z M158.9,148.5v2.3h1.9c0.8,0,1.2-0.5,1.2-1.1c0-0.6-0.4-1.2-1.2-1.2H158.9z"/>
	<path class="st0" d="M164.5,147.8h-0.8v-0.3c0.7,0,1.3,0,2,0v0.3h-0.8v2.1h-0.4V147.8z"/>
	<path class="st0" d="M168.1,148l-0.8,1.1h-0.1l-0.8-1.1v1.9H166v-2.4c0.2,0,0.3,0,0.5,0l0.8,1.1l0.8-1.1h0.5v2.4h-0.4V148z"/>
</g>
</svg>
