<?xml version="1.0" encoding="utf-8"?>
<!-- Generator: Adobe Illustrator 20.1.0, SVG Export Plug-In . SVG Version: 6.00 Build 0)  -->
<svg version="1.1" id="Layer_1" xmlns="http://www.w3.org/2000/svg" xmlns:xlink="http://www.w3.org/1999/xlink" x="0px" y="0px"
	 viewBox="0 0 481.7 112.9" style="enable-background:new 0 0 481.7 112.9;" xml:space="preserve">
<style type="text/css">
	.st0{fill:#005F9E;}
</style>
<g>
	<path class="st0" d="M167.2,37.9H187v9.5h0.3c2.5-7.9,11.5-11,19.5-11v20.4c-2.8-1-5.4-1.7-8.2-1.7c-6.7,0-8.9,1.7-11.1,4.9v40.5
		h-20.2L167.2,37.9L167.2,37.9z"/>
	<rect x="212" y="37.9" class="st0" width="20.2" height="62.6"/>
	<path class="st0" d="M239.1,37.9h20.2v8.4h0.2c4.3-6.4,10.6-9.9,17.8-9.9c6.1,0,12.2,3.9,12.6,9.9h0.2c4.3-6.4,10.6-9.9,17.8-9.9
		c8.1,0,14.1,4.4,14.1,13.3v50.8h-20.1V56.2c0-3.4-1.1-5.6-4.9-5.6c-2.1,0-3.9,0.9-5.2,2.6l-1.1,1.5v45.8h-20.2V56.2
		c0-3.4-1.1-5.6-4.9-5.6c-2.1,0-3.9,0.9-5.3,2.6l-1.1,1.5v45.8H239V37.9H239.1z"/>
	<path class="st0" d="M328.9,11.8h20.2v29.8h0.3c2.9-3,8.1-5.1,12.2-5.1c14,0,21.5,14,21.5,32c0,14.3-6,32.8-22.9,32.8
		c-7.9,0-13-3.7-17-9.7l-3.8,9h-10.5V11.8z M349.1,80.5c-0.4,5.2,2.8,8.1,6.6,8.1c5.6,0,6.4-5.6,6.4-17.2v-4.7c0-12.5,0-19-6.2-19
		c-2.5,0-4.4,1.5-5.6,2.5l-1.1,1.1L349.1,80.5L349.1,80.5z"/>
	<rect x="388.3" y="11.8" class="st0" width="20.2" height="88.8"/>
	<path class="st0" d="M434,71.8c0,5.5,1.1,14.8,9.1,14.8c4.9,0,9-3.5,10.2-8.6l13.6,5c-0.9,2.9-7.1,17.1-25.1,17.1
		c-19.3,0-28.1-15.6-28.1-32.9c0-17.7,9.2-32.7,27.8-32.7c19.5,0,26.2,16.7,26.2,33v4.2H434V71.8z M449.1,59.9
		c-0.1-5.9-0.6-12.6-7.6-12.6c-5.7,0-7.5,6.7-7.5,12.6H449.1z"/>
	<rect x="212" y="11.4" class="st0" width="20.3" height="18"/>
	<polygon class="st0" points="113.4,11.4 176,11.4 176,28.6 155.9,28.6 155.9,100.2 133.5,100.2 133.5,28.6 113.4,28.6 	"/>
	<path class="st0" d="M72.7,78.3c-0.3,1.3-0.7,2.6-1.2,3.7c-0.2,0.4-0.3,0.8-0.3,1.2c-0.9,0.8-1.5,1.4-1.6,1.5
		c-4.7,3.9-8.3,6-14,7.8c-2.1,0.7-6.5,1.8-12.1,1.7l-8.7,4.7c10.5,2.3,19.1,0.2,22.5-0.9c6.4-2.1,10.7-4.5,15.9-8.8
		c1.1-0.9,6.6-5.7,10.4-13.2c0.7-1.4,1.4-2.9,2-4.5L72.7,78.3z"/>
	<path class="st0" d="M42.4,17.2c0.3,0,0.6,0,0.9,0c0.6,0,1.1,0,1.7,0c-1,0.2-2,0.6-2.9,0.9l7.7,4.2c6-0.2,12.2,2.5,16.3,6.8
		c-0.9,0.1-1.9,0.2-2.9,0.4l13.1,7.1c0-0.1,0-0.3-0.1-0.4c0.5,0.3,1,0.7,1.4,1.1l8.7,4.7c-0.1-0.3-0.2-0.7-0.3-1
		c-0.1-0.2-0.2-0.4-0.3-0.5c-0.1-0.3-0.2-0.6-0.3-0.8c-2.5-7.2-7.3-13.4-13.4-18.2c-0.2-0.2-0.3-0.4-0.6-0.6
		C62,13.6,52.6,12,47.8,11.7c-0.3,0-0.5,0-0.7,0c-2.9-0.2-5.8-0.2-8.6,0.2c-0.2,0-0.3,0.1-0.5,0.1c-1.2,0.2-2.3,0.4-3.2,0.6
		c-0.8,0.2-1.5,0.4-2.2,0.6l8.1,4.4C41.3,17.3,41.8,17.2,42.4,17.2"/>
	<path class="st0" d="M8.5,70c-1.2-3.1-2.1-6.9-2.3-8.4C5.8,58,5.8,58,5.8,54.5c0-1.1,0.1-2.7,0.3-3.9c0.4-2.7,1-5.8,2.7-10V29.1
		c-1.4,1.8-2.7,3.9-3.9,6.2c-3.2,6.4-4,11-4.5,14.3C0.1,51.1,0,53,0,54.5c0,3.8,0,3.8,0.5,7.7c0.3,2.3,1.5,7.5,3.2,11.1
		c1.3,2.9,2.5,5.1,4,7.2c0.1,0.2,0.3,0.4,0.4,0.6c0.2,0.3,0.4,0.5,0.6,0.8V69.2C8.7,69.6,8.6,69.8,8.5,70"/>
	<path class="st0" d="M74.2,49.3c-0.6,0.9-1.2,1.7-1.9,2.5c2.1,4,3.8,7.9,4.9,11.8c0.4-0.6,0.9-1.2,1.3-1.8
		c3.5-5.7,4.1-12.7,1.8-19.7c-0.2-0.2-0.3-0.5-0.4-0.7c-0.2-0.6-0.5-1.2-0.7-1.8c-0.3-0.3-0.5-0.6-0.6-0.9c-0.2-0.5-0.5-0.9-0.9-1.4
		l-1.3-0.7C77.2,41.1,76.5,45.5,74.2,49.3"/>
	<path class="st0" d="M39.5,17.4c-0.1,0-0.3,0-0.4,0c-1.9,0.3-3.7,0.7-5.5,1.3c1.5,0.3,3,0.8,4.5,1.4c1.2-0.8,2.5-1.5,3.9-2.1
		l-1.4-0.8C40.3,17.4,39.9,17.4,39.5,17.4"/>
	<path class="st0" d="M85.6,71.3L113,56.5L86.3,42C90.1,53.7,88.4,63.9,85.6,71.3"/>
	<path class="st0" d="M47.9,22.4L47.9,22.4c-1.1,0.2-2.2,0.4-3.2,0.8c3.7,2.1,7.5,4.8,11.2,8.1c2.6-0.8,5-1.4,7.3-1.7l-13.4-7.2
		C49.2,22.3,48.5,22.3,47.9,22.4"/>
	<path class="st0" d="M60.8,78.7c-15.2,2.1-31.4-5-40.8-16.8c-3.5,4.3-6,8.5-6.9,12.3c-0.3,1.5-0.4,2.8-0.2,3.9
		c0.6,0.8,1.3,1.7,2.1,2.6c2.2,2.6,8.3,8.9,18.5,11.9c3.6,1,6.9,1.5,10,1.5l29.3-15.9c0.2-1.2,0.4-2.4,0.4-3.7
		C69.5,76.6,65.4,78,60.8,78.7"/>
	<path class="st0" d="M20.8,52.5c3.5-3.4,7.5-6.7,11.8-9.6c-0.3-0.6-0.5-1.3-0.8-1.9l0,0c-1.9-5.5-1.4-11,1.3-15.5
		c0.2-0.3,0.4-0.5,0.5-0.8c-3.2-0.9-6.1-1.2-8.7-0.9c-1.6,1.4-3,3.1-4.1,4.9c-2.1,3.4-3.2,7.4-3.2,11.5c0,2.9,0.5,5.8,1.5,8.7
		C19.7,50.1,20.3,51.3,20.8,52.5"/>
	<path class="st0" d="M37.2,39.1c0.1,0.2,0.2,0.4,0.3,0.6c3.9-2.4,8-4.5,12.2-6.2c-3.5-2.8-7-5.1-10.5-6.7c-0.4,0.5-0.9,1-1.2,1.6
		C36.2,31.5,35.9,35.3,37.2,39.1L37.2,39.1"/>
	<path class="st0" d="M59.5,52.2c2-0.3,3.8-0.9,5.3-1.7C62,46,58.5,41.7,54.5,37.8c-0.7,0.2-1.4,0.5-2.1,0.8
		c-4.1,1.6-8.1,3.7-12,6.1C44.9,50,52.4,53.2,59.5,52.2"/>
	<path class="st0" d="M21.6,17.6c3-1.7,5.9-3.3,11.1-4.7L8.8,0v29.2C14.3,21.9,20.7,18.1,21.6,17.6"/>
	<path class="st0" d="M69.3,46.3c1.9-3.1,2.2-6.9,0.8-10.7l0,0c-0.1-0.3-0.3-0.6-0.4-1c-2.6,0-5.7,0.4-9.1,1.2
		c3.2,3.4,6.1,7,8.5,10.7C69.2,46.4,69.3,46.4,69.3,46.3"/>
	<path class="st0" d="M60,73c4.8-0.7,9-2.3,12.4-4.8c-0.9-4.1-2.5-8.4-4.7-12.8c-2.2,1.2-4.7,2.1-7.4,2.4c-9.2,1.3-18.9-3-24.6-10.1
		c-4.3,3-8.3,6.4-11.7,9.8C32,68.3,46.4,74.9,60,73"/>
	<path class="st0" d="M16.7,56.9c-1.1-2-2.1-4-2.8-6.1l0,0c-2.1-5.9-2.4-11.9-1.1-17.4c-1,1.4-2,3-2.8,4.7l0,0
		c-0.5,1-0.9,1.8-1.2,2.7v28.6C10.4,65.3,13.1,61.1,16.7,56.9"/>
	<path class="st0" d="M80.5,68.6c-0.6,0.7-1.2,1.3-1.9,1.9c0.1,0.7,0.1,1.4,0.2,2.1C79.4,71.4,80,70.1,80.5,68.6"/>
	<path class="st0" d="M10.6,84.4c-0.7-0.8-1.3-1.6-1.9-2.4v30.9l26-14.1c-1-0.2-1.9-0.4-2.9-0.7C20.2,94.7,13.2,87.4,10.6,84.4"/>
	<path class="st0" d="M88.2,94.3c0-3.7,3.1-6.8,7-6.8s7,3.1,7,6.8c0,3.8-3.1,6.8-7,6.8C91.3,101.1,88.2,98.1,88.2,94.3 M89.5,94.3
		c0,3.1,2.5,5.5,5.7,5.5c3.1,0,5.6-2.4,5.6-5.5c0-3-2.5-5.4-5.6-5.4C92,88.8,89.5,91.3,89.5,94.3 M98.7,98.1h-1.3l-2.2-3.5h-1.4v3.5
		h-1.2v-7.6H96c0.6,0,1.3,0,1.9,0.4c0.6,0.3,0.9,1,0.9,1.6c0,1.5-1.1,2.1-2.5,2.1L98.7,98.1z M95,93.6c1.1,0,2.6,0.2,2.6-1.2
		c0-1-0.9-1.1-1.8-1.1h-2v2.3L95,93.6L95,93.6z"/>
	<path class="st0" d="M467.7,94.3c0-3.7,3.1-6.8,7-6.8s7,3.1,7,6.8c0,3.8-3.1,6.8-7,6.8C470.8,101.1,467.7,98.1,467.7,94.3
		 M469,94.3c0,3.1,2.5,5.5,5.7,5.5c3.1,0,5.6-2.4,5.6-5.5c0-3-2.5-5.4-5.6-5.4C471.5,88.8,469,91.3,469,94.3 M478.2,98.1h-1.3
		l-2.2-3.5h-1.4v3.5h-1.2v-7.6h3.4c0.6,0,1.3,0,1.9,0.4c0.6,0.3,0.9,1,0.9,1.6c0,1.5-1.1,2.1-2.5,2.1L478.2,98.1z M474.5,93.6
		c1.1,0,2.6,0.2,2.6-1.2c0-1-0.9-1.1-1.8-1.1h-2v2.3L474.5,93.6L474.5,93.6z"/>
</g>
</svg>
