<?xml version="1.0" encoding="utf-8"?>
<!-- Generator: Adobe Illustrator 22.1.0, SVG Export Plug-In . SVG Version: 6.00 Build 0)  -->
<svg class="home-image" alt="The ACM UMN Student Chapter logo." version="1.1" id="Layer_1" xmlns="http://www.w3.org/2000/svg" xmlns:xlink="http://www.w3.org/1999/xlink" x="0px" y="0px"
	 viewBox="0 0 300 300" style="enable-background:new 0 0 300 300;" xml:space="preserve">
<style type="text/css">
	.st0{fill:#7A0019;}
	.st1{fill:#FFCC33;}
	.st2{fill:#FFCC33;stroke:#FFCC33;stroke-width:0.75;stroke-miterlimit:10;}
	.st3{font-family:'MyriadPro-Regular';}
	.st4{font-size:17.0315px;}
</style>
<polygon class="st0" points="150,300 0,150 150,0 300,150 "/>
<circle class="st1" cx="150" cy="150" r="92"/>
<circle class="st0" cx="150" cy="150" r="82"/>
<g id="chapter">
	<path id="chapter-c" class="st1" d="M162.2,192.4c-0.5,0.2-1.6,0.5-3,0.5c-4.1,0-6.2-2.5-6.2-5.9c0-4,2.9-6.3,6.4-6.3
		c1.4,0,2.4,0.3,2.9,0.5l-0.5,2.1c-0.5-0.2-1.3-0.4-2.2-0.4c-2.1,0-3.8,1.3-3.8,3.9c0,2.4,1.4,3.9,3.8,3.9c0.8,0,1.7-0.2,2.2-0.4
		L162.2,192.4z"/>
	<path id="chapter-h" class="st1" d="M163.3,180.3h2.7v4.9h0c0.3-0.4,0.6-0.6,1.1-0.9c0.4-0.2,0.9-0.3,1.4-0.3c1.7,0,3,1.2,3,3.7v5
		h-2.7V188c0-1.1-0.4-1.9-1.4-1.9c-0.7,0-1.1,0.5-1.3,0.9c-0.1,0.2-0.1,0.4-0.1,0.6v5.1h-2.7L163.3,180.3L163.3,180.3z"/>
	<path id="chapter-a" class="st1" d="M177.9,192.8l-0.2-0.9h-0.1c-0.6,0.7-1.4,1.1-2.5,1.1c-1.7,0-2.8-1.3-2.8-2.6
		c0-2.2,2-3.3,5-3.3v-0.1c0-0.5-0.2-1.1-1.6-1.1c-0.9,0-1.8,0.3-2.4,0.6l-0.5-1.7c0.6-0.3,1.8-0.8,3.3-0.8c2.9,0,3.8,1.7,3.8,3.7v3
		c0,0.8,0,1.6,0.1,2.1L177.9,192.8L177.9,192.8z M177.6,188.7c-1.4,0-2.5,0.3-2.5,1.3c0,0.7,0.5,1,1.1,1c0.7,0,1.2-0.4,1.4-1
		c0-0.1,0.1-0.3,0.1-0.5L177.6,188.7L177.6,188.7z"/>
	<path id="chapter-p" class="st1" d="M181.7,187.1c0-1.1,0-2.1-0.1-2.9h2.3l0.1,1.2h0c0.6-0.9,1.6-1.4,2.9-1.4
		c1.9,0,3.6,1.6,3.6,4.4c0,3.1-2,4.6-3.9,4.6c-1,0-1.8-0.4-2.2-1h0v4.3h-2.7L181.7,187.1L181.7,187.1z M184.4,189.1
		c0,0.2,0,0.4,0.1,0.6c0.2,0.7,0.8,1.3,1.6,1.3c1.2,0,1.8-1,1.8-2.4c0-1.4-0.6-2.4-1.8-2.4c-0.8,0-1.4,0.6-1.6,1.3
		c0,0.1-0.1,0.3-0.1,0.5V189.1z"/>
	<path id="chapter-t" class="st1" d="M194.7,181.7v2.5h1.9v2h-1.9v3.1c0,1,0.2,1.5,1.1,1.5c0.3,0,0.6,0,0.8-0.1l0,2
		c-0.4,0.1-1,0.2-1.7,0.2c-0.9,0-1.6-0.3-2-0.7c-0.5-0.5-0.7-1.3-0.7-2.5v-3.5h-1.1v-2h1.1v-1.9L194.7,181.7z"/>
	<path id="chapter-e" class="st1" d="M199.6,189.3c0.1,1.1,1.2,1.6,2.4,1.6c0.9,0,1.6-0.1,2.4-0.4l0.4,1.8c-0.9,0.4-1.9,0.5-3.1,0.5
		c-2.9,0-4.6-1.7-4.6-4.4c0-2.2,1.3-4.6,4.3-4.6c2.8,0,3.8,2.2,3.8,4.3c0,0.5-0.1,0.9-0.1,1.1L199.6,189.3L199.6,189.3L199.6,189.3z
		 M202.7,187.5c0-0.6-0.3-1.7-1.5-1.7c-1.1,0-1.6,1-1.6,1.7H202.7z"/>
	<path id="chapter-r" class="st1" d="M206.2,187c0-1.3,0-2.1-0.1-2.8h2.3l0.1,1.6h0.1c0.4-1.2,1.5-1.8,2.3-1.8c0.2,0,0.4,0,0.6,0
		v2.5c-0.2,0-0.4-0.1-0.7-0.1c-1,0-1.6,0.5-1.8,1.3c0,0.2-0.1,0.4-0.1,0.6v4.3h-2.7V187z"/>
</g>
<path id="acm-a" class="st1" d="M103,165.6c-0.8,0.7-1.6,1.3-2.3,1.9s-1.6,1.1-2.7,1.7c-1.1,0.5-2.2,0.9-3.2,1.2
	c-1,0.3-2.5,0.4-4.4,0.4c-3.5,0-6.4-1.2-8.7-3.5c-2.3-2.3-3.5-5.3-3.5-8.9c0-2.9,0.6-5.3,1.8-7.1c1.2-1.8,2.9-3.2,5.1-4.3
	c2.2-1.1,4.9-1.8,8-2.3s6.4-0.8,10-1v-0.2c0-2.2-0.8-3.7-2.4-4.5s-4-1.2-7.2-1.2c-1.5,0-3.2,0.3-5.1,0.8s-3.8,1.2-5.7,2h-1.1v-9.5
	c1.2-0.4,3.2-0.8,5.9-1.2s5.5-0.7,8.2-0.7c6.8,0,11.7,1.1,14.9,3.4c3.1,2.3,4.7,5.7,4.7,10.4v26.9H103L103,165.6L103,165.6z
	 M103,159.5v-8.2c-2.1,0.2-3.8,0.4-5.1,0.5c-1.3,0.2-2.6,0.4-3.8,0.9c-1.1,0.4-1.9,0.9-2.5,1.7c-0.6,0.8-0.9,1.8-0.9,3
	c0,1.9,0.5,3.1,1.5,3.8c1,0.7,2.5,1,4.4,1c1.1,0,2.2-0.2,3.3-0.7S102,160.4,103,159.5z"/>
<path id="acm-c" class="st1" d="M142.5,170.8c-3.3,0-6.2-0.4-8.9-1.2c-2.7-0.8-5.1-2.1-7-3.8c-2-1.7-3.5-3.9-4.6-6.4
	c-1.1-2.6-1.7-5.6-1.7-9.2c0-3.8,0.6-7,1.8-9.6c1.2-2.6,2.8-4.8,4.9-6.5c2-1.6,4.3-2.9,6.9-3.6c2.7-0.8,5.4-1.2,8.3-1.2
	c2.2,0,4.4,0.3,6.5,0.8c2.2,0.5,4.4,1.3,6.6,2.4v10.5h-1.6c-0.5-0.5-1.1-1-1.8-1.5c-0.7-0.6-1.5-1.1-2.3-1.5c-0.9-0.5-1.9-0.9-3-1.2
	c-1.1-0.3-2.4-0.5-3.8-0.5c-3.1,0-5.6,1.1-7.3,3.3c-1.7,2.2-2.6,5.1-2.6,8.8c0,4,0.9,6.9,2.8,8.9c1.8,1.9,4.3,2.9,7.3,2.9
	c1.5,0,2.9-0.2,4.1-0.5c1.2-0.4,2.2-0.8,3-1.3c0.8-0.5,1.5-1,2.1-1.5s1.1-1,1.5-1.4h1.6v10.5c-0.7,0.3-1.5,0.7-2.4,1.1
	c-0.9,0.4-1.9,0.7-2.8,1c-1.2,0.3-2.3,0.6-3.4,0.8C145.5,170.7,144.2,170.8,142.5,170.8z"/>
<path id="acm-m" class="st1" d="M209.4,169.8v-19.7c0-1.9,0-3.6-0.1-4.9c-0.1-1.3-0.3-2.4-0.6-3.3c-0.4-0.8-0.9-1.5-1.6-1.8
	c-0.7-0.4-1.8-0.6-3.1-0.6c-0.9,0-1.9,0.2-2.8,0.6c-0.9,0.4-1.9,1-3,1.7v28h-12.4v-19.7c0-1.9,0-3.6-0.1-4.9s-0.3-2.4-0.6-3.3
	c-0.4-0.8-0.9-1.5-1.6-1.8c-0.7-0.4-1.8-0.6-3.1-0.6c-1,0-2,0.2-3,0.7c-1,0.5-1.9,1-2.8,1.7v28h-12.3v-39.5h12.3v4.4
	c2-1.7,3.9-3,5.7-4c1.8-1,3.8-1.4,6-1.4c2.4,0,4.5,0.6,6.4,1.7s3.2,2.9,4.2,5.1c2.4-2.2,4.6-3.9,6.7-5.1c2.1-1.2,4.2-1.8,6.4-1.8
	c1.8,0,3.5,0.3,4.9,0.9c1.5,0.6,2.7,1.5,3.7,2.6c1.1,1.3,1.9,2.8,2.5,4.5c0.6,1.7,0.8,4,0.8,6.8v25.7H209.4z"/>
<text transform="matrix(0.9927 0 0 1 90.0005 192.2744)" class="st2 st3 st4">Student</text>
<g id="g10" transform="matrix(1.25,0,0,-1.25,0,160.6625)">
	<g id="g12" transform="scale(0.1,0.1)">
		<path id="path14" class="st1" d="M1465.8,354c0.5-0.2,1-0.4,1.3-0.8c0.3-0.4,0.5-0.8,0.5-1.4c0-0.5-0.1-1-0.4-1.4
			c-0.3-0.4-0.7-0.7-1.2-0.9c-0.5-0.2-1.1-0.3-1.7-0.3h-2.3v5h2.3C1464.7,354.3,1465.3,354.2,1465.8,354L1465.8,354z M1463.9,346.7
			c0.9,0,1.6-0.1,2.1-0.4c0.5-0.2,0.8-0.6,1-1c0.2-0.4,0.3-1.1,0.4-2.1c0.1-1.3,0.2-2.1,0.3-2.4h3.4c-0.1,0.4-0.2,1.1-0.2,2.1
			c0,0.9-0.1,1.6-0.2,2c-0.1,0.6-0.3,1.1-0.6,1.6c-0.3,0.4-0.7,0.8-1.1,1c-0.4,0.2-1,0.4-1.7,0.6c0.8,0.1,1.4,0.2,1.7,0.4
			c0.6,0.3,1.1,0.8,1.5,1.4c0.4,0.6,0.6,1.3,0.6,2.1c0,0.8-0.2,1.5-0.5,2.1c-0.4,0.6-0.8,1.1-1.4,1.5c-0.6,0.4-1.3,0.6-2.2,0.8
			c-0.6,0.1-1.6,0.2-2.8,0.2h-5.7v-15.8h3.5v5.8H1463.9L1463.9,346.7z M1477.4,354.7c-0.6,1.5-1.6,2.8-2.8,4
			c-1.2,1.2-2.7,2.3-4.4,3.1c-1.8,0.8-3.7,1.2-5.8,1.2c-2.2,0-4.2-0.5-6.2-1.4c-1.4-0.7-2.7-1.6-3.9-2.8c-1.2-1.2-2.2-2.7-3-4.4
			c-0.8-1.8-1.2-3.6-1.2-5.7c0-2.5,0.6-4.9,1.9-7.1c1.3-2.3,3-4,5.3-5.3c2.3-1.3,4.6-1.9,7.1-1.9c2.2,0,4.3,0.5,6.2,1.4
			c1.5,0.7,2.9,1.7,4.1,3c1.2,1.3,2.2,2.8,2.9,4.5c0.7,1.7,1,3.5,1,5.3C1478.7,350.8,1478.3,352.8,1477.4,354.7L1477.4,354.7z
			 M1468.9,360c1.5-0.6,2.7-1.4,3.8-2.5c1.1-1.1,1.9-2.2,2.5-3.5c0.8-1.7,1.2-3.4,1.2-5.3c0-2.1-0.5-4.2-1.6-6.1
			c-1.1-1.9-2.6-3.4-4.5-4.5c-1.9-1.1-3.9-1.6-6-1.6c-2.1,0-4.1,0.5-6,1.6c-1.9,1.1-3.4,2.6-4.5,4.5c-1.1,1.9-1.6,3.9-1.6,6.1
			c0,1.8,0.3,3.5,1,4.9c0.7,1.5,1.6,2.7,2.6,3.8c1,1,2.2,1.8,3.4,2.4c1.6,0.7,3.3,1.1,5,1.1C1465.9,360.9,1467.4,360.6,1468.9,360"
			/>
		<path id="blockm_1_" class="st1" d="M1410.2,406.6l-83.3,138.5h22.9v72.2h-138.7v-72.2h23l-31.8-52.9l-31.8,52.9h22.9v72.2h-138.7
			v-72.2h22.9l-83.3-138.5h-29.7v-72.2h141.4v72.2h-25.4l43.4,72.1l16.8-28h-16.1v-72.2h155.1v72.2h-16.1l16.8,28l43.4-72.1h-25.4
			v-72.2h141.4v72.2L1410.2,406.6"/>
	</g>
</g>
</svg>
